<?xml version="1.0" encoding="UTF-8" standalone="no"?>
<!-- Created with Inkscape (http://www.inkscape.org/) -->

<svg
   xmlns:dc="http://purl.org/dc/elements/1.1/"
   xmlns:cc="http://creativecommons.org/ns#"
   xmlns:rdf="http://www.w3.org/1999/02/22-rdf-syntax-ns#"
   xmlns:svg="http://www.w3.org/2000/svg"
   xmlns="http://www.w3.org/2000/svg"
   xmlns:sodipodi="http://sodipodi.sourceforge.net/DTD/sodipodi-0.dtd"
   xmlns:inkscape="http://www.inkscape.org/namespaces/inkscape"
   width="1673.0503"
   height="600.06549"
   viewBox="0 0 442.66122 158.76732"
   version="1.1"
   id="svg8"
   inkscape:version="0.92.4 (5da689c313, 2019-01-14)"
   sodipodi:docname="lowpolychilling.svg">
  <defs
     id="defs2" />
  <sodipodi:namedview
     id="base"
     pagecolor="#ffffff"
     bordercolor="#666666"
     borderopacity="1.0"
     inkscape:pageopacity="0.0"
     inkscape:pageshadow="2"
     inkscape:zoom="0.70710678"
     inkscape:cx="1111.1282"
     inkscape:cy="246.61388"
     inkscape:document-units="mm"
     inkscape:current-layer="layer1"
     showgrid="false"
     inkscape:window-width="3000"
     inkscape:window-height="1875"
     inkscape:window-x="-13"
     inkscape:window-y="-13"
     inkscape:window-maximized="1"
     fit-margin-top="0"
     fit-margin-left="0"
     fit-margin-right="0"
     fit-margin-bottom="0"
     units="px" />
  <metadata
     id="metadata5">
    <rdf:RDF>
      <cc:Work
         rdf:about="">
        <dc:format>image/svg+xml</dc:format>
        <dc:type
           rdf:resource="http://purl.org/dc/dcmitype/StillImage" />
        <dc:title></dc:title>
      </cc:Work>
    </rdf:RDF>
  </metadata>
  <g
     inkscape:label="Layer 1"
     inkscape:groupmode="layer"
     id="layer1"
     transform="translate(-4.5330897,-71.329053)">
    <path
       style="fill:#031926;fill-opacity:1;stroke:none;stroke-width:0.26458332px;stroke-linecap:butt;stroke-linejoin:miter;stroke-opacity:1"
       d="m 4.5330897,230.09638 c 0,0 3.2960052,-15.68391 14.3875143,-25.49958 15.892802,-14.06468 32.633931,-15.88724 32.633931,-15.88724 l -8.549245,13.47154 7.124372,13.08294 13.989671,5.31089 16.709887,0.64767 15.155479,-13.47153 5.051831,-19.30057 -1.683947,-10.23319 c 0,0 5.968547,-2.1713 9.067377,-2.07254 12.28926,0.39166 25.75259,9.25048 37.34791,13.34046 5.30452,1.87105 31.24503,24.93605 63.73458,25.72445 61.86844,1.50132 88.08846,-16.65588 143.45436,-16.51321 55.36589,0.14266 94.23749,18.097 94.23749,18.097 l -10e-4,13.30291 z"
       id="path826"
       inkscape:connector-curvature="0"
       sodipodi:nodetypes="csccccccccssssccc" />
    <path
       style="fill:#ddb38f;fill-opacity:1;stroke:#000000;stroke-width:0.26458332px;stroke-linecap:butt;stroke-linejoin:miter;stroke-opacity:1"
       d="m 51.554535,188.70956 -8.549245,13.47154 7.124372,13.08294 13.989671,5.31089 -7.51297,-14.18397 z"
       id="path828"
       inkscape:connector-curvature="0" />
    <path
       style="fill:#e1b189;fill-opacity:1;stroke:#000000;stroke-width:0.26458332px;stroke-linecap:butt;stroke-linejoin:miter;stroke-opacity:1"
       d="m 50.68018,174.71989 0.874355,13.98967 5.051828,17.6814 7.51297,14.18397 16.709885,0.64767 4.533693,-13.60107 7.966342,-17.03372 1.619174,-8.35494 -5.958565,7.6425 -10.362718,3.30312 -10.557023,-4.27462 -6.347167,-3.56219 z"
       id="path830"
       inkscape:connector-curvature="0" />
    <path
       style="fill:#cfa37c;fill-opacity:1;stroke:#000000;stroke-width:0.26458332px;stroke-linecap:butt;stroke-linejoin:miter;stroke-opacity:1"
       d="m 80.829218,221.2226 15.155481,-13.47153 5.051831,-19.30057 -1.683947,-10.23319 -0.201671,-5.41929 -4.202485,9.43485 -1.619176,8.35494 -7.966342,17.03372 z"
       id="path832"
       inkscape:connector-curvature="0" />
    <path
       style="fill:#c79c7c;fill-opacity:1;stroke:#000000;stroke-width:0.26458332px;stroke-linecap:butt;stroke-linejoin:miter;stroke-opacity:1"
       d="m 50.68018,174.71989 -5.76716,-6.43968 -2.844271,-10.18646 9.591146,6.87917 4.828646,5.29166 2.050521,7.27604 3.183892,7.80106 z"
       id="path834"
       inkscape:connector-curvature="0" />
    <path
       style="fill:#bb8e6d;fill-opacity:1;stroke:#000000;stroke-width:0.26458332px;stroke-linecap:butt;stroke-linejoin:miter;stroke-opacity:1"
       d="m 56.488541,170.26458 7.006757,-0.68966 5.957826,6.11362 5.688542,1.52135 3.485478,15.9686 -10.557023,-4.27462 -6.347167,-3.56219 -3.183892,-7.80106 z"
       id="path836"
       inkscape:connector-curvature="0"
       sodipodi:nodetypes="ccccccccc" />
    <path
       style="fill:#bd8a72;fill-opacity:1;stroke:#000000;stroke-width:0.26458332px;stroke-linecap:butt;stroke-linejoin:miter;stroke-opacity:1"
       d="m 75.141666,177.20989 5.688541,-1.25677 5.027084,-2.84427 -1.256771,4.29948 -4.828646,1.25677 z"
       id="path838"
       inkscape:connector-curvature="0" />
    <path
       style="fill:#936b50;fill-opacity:1;stroke:#000000;stroke-width:0.26458332px;stroke-linecap:butt;stroke-linejoin:miter;stroke-opacity:1"
       d="m 75.141666,177.20989 4.630208,1.45521 5.093229,2.91042 4.124759,8.29985 -10.362718,3.30312 z"
       id="path840"
       inkscape:connector-curvature="0" />
    <path
       style="fill:#91674e;fill-opacity:1;stroke:#000000;stroke-width:0.26458332px;stroke-linecap:butt;stroke-linejoin:miter;stroke-opacity:1"
       d="m 79.771874,178.6651 4.828646,-1.25677 5.529445,1.86612 3.601458,-3.41436 1.217004,6.37278 -5.958565,7.6425 -4.124759,-8.29985 z"
       inkscape:connector-curvature="0"
       id="path842" />
    <path
       style="fill:#b98560;fill-opacity:1;stroke:#000000;stroke-width:0.26458332px;stroke-linecap:butt;stroke-linejoin:miter;stroke-opacity:1"
       d="m 85.857291,173.10885 6.377421,-8.89503 2.666013,0.79512 1.91766,5.70621 -3.086962,5.14494 -3.601458,3.41436 -5.529445,-1.86612 z"
       id="path844"
       inkscape:connector-curvature="0" />
    <path
       style="fill:#74523e;fill-opacity:1;stroke:#000000;stroke-width:0.26458332px;stroke-linecap:butt;stroke-linejoin:miter;stroke-opacity:1"
       d="m 94.948427,182.23287 -1.217004,-6.37278 3.08696,-5.14494 2.361996,-7.29646 2.549081,-0.25725 -2.57855,9.63658 z"
       id="path846"
       inkscape:connector-curvature="0" />
    <path
       style="fill:#a6795c;fill-opacity:1;stroke:#000000;stroke-width:0.26458332px;stroke-linecap:butt;stroke-linejoin:miter;stroke-opacity:1"
       d="m 99.180379,163.41869 2.549081,-0.25725 4.34981,-10.45358 -0.23386,-7.62386 -4.11595,4.11595 -0.38587,6.057 z"
       id="path848"
       inkscape:connector-curvature="0"
       sodipodi:nodetypes="ccccccc" />
    <path
       style="fill:#b18060;fill-opacity:1;stroke:#000000;stroke-width:0.26458332px;stroke-linecap:butt;stroke-linejoin:miter;stroke-opacity:1"
       d="m 96.818383,170.71515 2.361996,-7.29646 -4.279654,1.59025 z"
       id="path850"
       inkscape:connector-curvature="0" />
    <path
       style="fill:#eeac89;fill-opacity:1;stroke:#000000;stroke-width:0.26458332px;stroke-linecap:butt;stroke-linejoin:miter;stroke-opacity:1"
       d="m 101.72946,149.19995 -11.903419,4.52817 9.354338,9.69057 2.163211,-8.16174 z"
       id="path852"
       inkscape:connector-curvature="0" />
    <path
       style="fill:#ab7e5f;fill-opacity:1;stroke:#000000;stroke-width:0.26458332px;stroke-linecap:butt;stroke-linejoin:miter;stroke-opacity:1"
       d="m 99.180379,163.41869 -6.618261,-6.82874 -10.102789,0.28064 -0.701582,7.15614 7.76418,0.28063 2.712785,-0.0935 2.666013,0.79512 z"
       id="path854"
       inkscape:connector-curvature="0"
       sodipodi:nodetypes="cccccccc" />
    <path
       style="fill:#b48068;fill-opacity:1;stroke:#000000;stroke-width:0.26458332px;stroke-linecap:butt;stroke-linejoin:miter;stroke-opacity:1"
       d="m 82.459329,156.87059 -10.851142,2.71278 -0.467722,7.24969 3.180508,-0.74836 3.180506,0.79513 4.256268,-2.8531 z"
       id="path856"
       inkscape:connector-curvature="0"
       sodipodi:nodetypes="ccccccc" />
    <path
       style="fill:#b5886b;fill-opacity:1;stroke:#000000;stroke-width:0.26458332px;stroke-linecap:butt;stroke-linejoin:miter;stroke-opacity:1"
       d="m 71.140465,166.83306 -7.645167,2.74186 -7.006757,0.68966 7.6361,-6.28462 7.483546,-4.39659 z"
       id="path858"
       inkscape:connector-curvature="0"
       sodipodi:nodetypes="cccccc" />
    <path
       style="fill:#cd806e;fill-opacity:1;stroke:#000000;stroke-width:0.26458332px;stroke-linecap:butt;stroke-linejoin:miter;stroke-opacity:1"
       d="m 63.495298,169.57492 9.608623,1.71382 4.397558,-4.40891 -3.180506,-0.79513 -3.180508,0.74836 z"
       id="path860"
       inkscape:connector-curvature="0"
       sodipodi:nodetypes="cccccc" />
    <path
       style="fill:#b76a5a;fill-opacity:1;stroke:#000000;stroke-width:0.26458332px;stroke-linecap:butt;stroke-linejoin:miter;stroke-opacity:1"
       d="m 73.103921,171.28874 4.397558,-4.40891 4.256268,-2.8531 4.958421,2.54008 -7.578636,3.1213 z"
       id="path862"
       inkscape:connector-curvature="0"
       sodipodi:nodetypes="cccccc" />
    <path
       style="fill:#a96552;fill-opacity:1;stroke:#000000;stroke-width:0.26458332px;stroke-linecap:butt;stroke-linejoin:miter;stroke-opacity:1"
       d="m 81.757747,164.02673 4.958421,2.54008 5.518544,-2.35299 -2.712785,0.0935 z"
       id="path864"
       inkscape:connector-curvature="0"
       sodipodi:nodetypes="ccccc" />
    <path
       style="fill:#ca7269;fill-opacity:1;stroke:#000000;stroke-width:0.26458332px;stroke-linecap:butt;stroke-linejoin:miter;stroke-opacity:1"
       d="m 63.495298,169.57492 5.957826,6.11362 3.650797,-4.3998 z"
       id="path866"
       inkscape:connector-curvature="0"
       sodipodi:nodetypes="cccc" />
    <path
       style="fill:#e88482;fill-opacity:1;stroke:#000000;stroke-width:0.26458332px;stroke-linecap:butt;stroke-linejoin:miter;stroke-opacity:1"
       d="m 69.453124,175.68854 5.688542,1.52135 3.995866,-7.52178 -6.033611,1.60063 z"
       id="path868"
       inkscape:connector-curvature="0"
       sodipodi:nodetypes="ccccc" />
    <path
       style="fill:#dc6f6a;fill-opacity:1;stroke:#000000;stroke-width:0.26458332px;stroke-linecap:butt;stroke-linejoin:miter;stroke-opacity:1"
       d="m 75.141666,177.20989 5.688539,-1.25677 5.885963,-9.38631 -7.578636,3.1213 z"
       id="path870"
       inkscape:connector-curvature="0"
       sodipodi:nodetypes="ccccc" />
    <path
       style="fill:#ac594b;fill-opacity:1;stroke:#000000;stroke-width:0.26458332px;stroke-linecap:butt;stroke-linejoin:miter;stroke-opacity:1"
       d="m 80.830205,175.95312 5.027086,-2.84427 6.377421,-8.89503 -5.518544,2.35299 c 0.03722,-0.084 -4.563385,6.40086 -5.885963,9.38631 z"
       id="path872"
       inkscape:connector-curvature="0"
       sodipodi:nodetypes="ccccc" />
    <path
       style="fill:#e5b08e;fill-opacity:1;stroke:#000000;stroke-width:0.26458332px;stroke-linecap:butt;stroke-linejoin:miter;stroke-opacity:1"
       d="m 42.068749,158.09375 -2.639814,-13.75811 4.069181,-1.21607 4.77076,3.41437 3.391019,18.43898 z"
       id="path874"
       inkscape:connector-curvature="0" />
    <path
       style="fill:#f3b498;fill-opacity:1;stroke:#000000;stroke-width:0.26458332px;stroke-linecap:butt;stroke-linejoin:miter;stroke-opacity:1"
       d="m 48.268876,146.53394 17.165386,7.20291 -1.309621,10.24311 -7.6361,6.28462 -4.828646,-5.29166 z"
       id="path876"
       inkscape:connector-curvature="0" />
    <path
       style="fill:#e5a784;fill-opacity:1;stroke:#000000;stroke-width:0.26458332px;stroke-linecap:butt;stroke-linejoin:miter;stroke-opacity:1"
       d="m 92.562118,156.58995 -2.736077,-2.86183 -3.935677,-3.80338 1.02526,4.03489 -4.456295,2.91096 z"
       id="path880"
       inkscape:connector-curvature="0" />
    <path
       style="fill:#ebb090;fill-opacity:1;stroke:#000000;stroke-width:0.26458332px;stroke-linecap:butt;stroke-linejoin:miter;stroke-opacity:1"
       d="m 65.434262,153.73685 -1.309621,10.24311 7.483546,-4.39659 -4.404021,0.52783 -1.653646,-1.9513 z"
       id="path882"
       inkscape:connector-curvature="0" />
    <path
       style="fill:#bb8664;fill-opacity:1;stroke:#000000;stroke-width:0.26458332px;stroke-linecap:butt;stroke-linejoin:miter;stroke-opacity:1"
       d="m 105.84541,145.084 -4.3777,-16.7228 -4.96094,2.57969 5.22269,18.25906 z"
       id="path884"
       inkscape:connector-curvature="0" />
    <path
       style="fill:#e4a081;fill-opacity:1;stroke:#000000;stroke-width:0.26458332px;stroke-linecap:butt;stroke-linejoin:miter;stroke-opacity:1"
       d="m 96.50677,130.94089 -4.7625,5.62239 -9.29349,-0.62838 7.375261,17.79322 11.903419,-4.52817 z"
       id="path886"
       inkscape:connector-curvature="0" />
    <path
       style="fill:#c58461;fill-opacity:1;stroke:#000000;stroke-width:0.26458332px;stroke-linecap:butt;stroke-linejoin:miter;stroke-opacity:1"
       d="m 89.826041,153.72812 -7.375261,-17.79322 -5.55625,-0.76068 1.190625,9.1612 7.805209,5.58932 z"
       id="path890"
       inkscape:connector-curvature="0"
       sodipodi:nodetypes="cccccc" />
    <path
       style="fill:#ab6c4d;fill-opacity:1;stroke:#000000;stroke-width:0.26458332px;stroke-linecap:butt;stroke-linejoin:miter;stroke-opacity:1"
       d="m 78.085155,144.33542 -1.422135,3.63802 10.252604,5.98619 -1.02526,-4.03489 z"
       id="path892"
       inkscape:connector-curvature="0"
       sodipodi:nodetypes="ccccc" />
    <path
       style="fill:#d2876a;fill-opacity:1;stroke:#000000;stroke-width:0.26458332px;stroke-linecap:butt;stroke-linejoin:miter;stroke-opacity:1"
       d="m 71.608187,159.58337 0.208819,-2.39732 -1.867791,0.37853 0.446485,-0.71106 -3.241646,-2.85209 -1.603534,4.15847 1.653646,1.9513 z"
       id="path896"
       inkscape:connector-curvature="0"
       sodipodi:nodetypes="cccccccc" />
    <path
       style="fill:#cb8a68;fill-opacity:1;stroke:#000000;stroke-width:0.26458332px;stroke-linecap:butt;stroke-linejoin:miter;stroke-opacity:1"
       d="m 67.154054,154.00143 0.08319,-5.86263 3.571875,1.71979 c -1.200915,1.39655 -2.422644,2.77421 -3.655065,4.14284 z"
       id="path898"
       inkscape:connector-curvature="0"
       sodipodi:nodetypes="cccc" />
    <path
       style="fill:#e0a282;fill-opacity:1;stroke:#000000;stroke-width:0.26458332px;stroke-linecap:butt;stroke-linejoin:miter;stroke-opacity:1"
       d="m 70.809114,149.85859 2.910416,1.38907 -1.240234,4.6302 -2.083596,0.97566 -3.241646,-2.85209 z"
       id="path900"
       inkscape:connector-curvature="0"
       sodipodi:nodetypes="cccccc" />
    <path
       style="fill:#dc9e84;fill-opacity:1;stroke:#000000;stroke-width:0.26458332px;stroke-linecap:butt;stroke-linejoin:miter;stroke-opacity:1"
       d="m 73.71953,151.24766 3.551528,0.42078 4.452118,-0.75151 -3.175,4.10104 -6.06888,0.85989 z"
       id="path902"
       inkscape:connector-curvature="0"
       sodipodi:nodetypes="cccccc" />
    <path
       style="fill:#b57358;fill-opacity:1;stroke:#000000;stroke-width:0.26458332px;stroke-linecap:butt;stroke-linejoin:miter;stroke-opacity:1"
       d="m 86.915624,153.95963 -3.704167,0.33073 -1.355989,-0.95911 -3.307292,1.68672 3.175,-4.10104 z"
       id="path904"
       inkscape:connector-curvature="0" />
    <path
       style="fill:#aa725a;fill-opacity:1;stroke:#000000;stroke-width:0.26458332px;stroke-linecap:butt;stroke-linejoin:miter;stroke-opacity:1"
       d="m 72.479296,155.87786 2.083594,0.38034 -2.745884,0.92785 -0.208819,2.39732 4.889468,-1.19196 2.050521,-3.37344 z"
       id="path906"
       inkscape:connector-curvature="0"
       sodipodi:nodetypes="ccccccc" />
    <path
       style="fill:#8e5041;fill-opacity:1;stroke:#000000;stroke-width:0.26458332px;stroke-linecap:butt;stroke-linejoin:miter;stroke-opacity:1"
       d="m 78.548176,155.01797 4.663279,-0.72761 -0.752126,2.58023 -5.961674,1.52082 z"
       id="path908"
       inkscape:connector-curvature="0" />
    <path
       style="fill:#9c5843;fill-opacity:1;stroke:#000000;stroke-width:0.26458332px;stroke-linecap:butt;stroke-linejoin:miter;stroke-opacity:1"
       d="m 83.211455,154.29036 3.704169,-0.33073 -4.456295,2.91096 z"
       id="path910"
       inkscape:connector-curvature="0" />
    <path
       style="fill:#42170f;fill-opacity:1;stroke:#000000;stroke-width:0.26458332px;stroke-linecap:butt;stroke-linejoin:miter;stroke-opacity:1"
       d="m 78.548176,155.01797 3.307292,-1.68672 1.355987,0.95911 z"
       id="path912"
       inkscape:connector-curvature="0" />
    <path
       style="fill:#3e1a14;fill-opacity:1;stroke:#000000;stroke-width:0.26458332px;stroke-linecap:butt;stroke-linejoin:miter;stroke-opacity:1"
       d="m 70.3957,156.85352 -0.446485,0.71106 1.867791,-0.37853 2.745884,-0.92785 -2.083594,-0.38034 z"
       id="path914"
       inkscape:connector-curvature="0"
       sodipodi:nodetypes="cccccc" />
    <path
       style="fill:#d18566;fill-opacity:1;stroke:#000000;stroke-width:0.26458332px;stroke-linecap:butt;stroke-linejoin:miter;stroke-opacity:1"
       d="m 73.71953,151.24766 0.889477,-8.51208 3.476148,1.59984 -1.422135,3.63802 z"
       id="path916"
       inkscape:connector-curvature="0"
       sodipodi:nodetypes="ccccc" />
    <path
       style="fill:#d78c6e;fill-opacity:1;stroke:#000000;stroke-width:0.26458332px;stroke-linecap:butt;stroke-linejoin:miter;stroke-opacity:1"
       d="m 74.609009,142.73558 -2.032525,2.53585 -1.76737,4.58716 2.910416,1.38907 z"
       id="path920"
       inkscape:connector-curvature="0"
       sodipodi:nodetypes="ccccc" />
    <path
       style="fill:#d99976;fill-opacity:1;stroke:#000000;stroke-width:0.26458332px;stroke-linecap:butt;stroke-linejoin:miter;stroke-opacity:1"
       d="m 67.237239,148.1388 5.339245,-2.86737 -1.76737,4.58716 z"
       id="path922"
       inkscape:connector-curvature="0"
       sodipodi:nodetypes="cccc" />
    <path
       style="fill:#e1a37e;fill-opacity:1;stroke:#000000;stroke-width:0.26458332px;stroke-linecap:butt;stroke-linejoin:miter;stroke-opacity:1"
       d="m 67.237244,148.1388 2.149734,-7.70599 2.645834,2.18281 0.543672,2.65581 z"
       id="path924"
       inkscape:connector-curvature="0"
       sodipodi:nodetypes="ccccc" />
    <path
       style="fill:#edad8c;fill-opacity:1;stroke:#000000;stroke-width:0.26458332px;stroke-linecap:butt;stroke-linejoin:miter;stroke-opacity:1"
       d="m 69.386978,140.43281 1.719792,-6.7138 0.926042,8.89661 c -0.964263,-0.6324 -1.800636,-1.40614 -2.645834,-2.18281 z"
       id="path926"
       inkscape:connector-curvature="0"
       sodipodi:nodetypes="cccc" />
    <path
       style="fill:#e69f7e;fill-opacity:1;stroke:#000000;stroke-width:0.26458332px;stroke-linecap:butt;stroke-linejoin:miter;stroke-opacity:1"
       d="m 74.609009,142.73558 0.03937,-10.98165 -3.541607,1.96508 0.926041,8.89661 0.543671,2.65581 z"
       id="path930"
       inkscape:connector-curvature="0"
       sodipodi:nodetypes="cccccc" />
    <path
       style="fill:#cb8765;fill-opacity:1;stroke:#000000;stroke-width:0.26458332px;stroke-linecap:butt;stroke-linejoin:miter;stroke-opacity:1"
       d="m 78.085155,144.33542 -1.190625,-9.1612 -2.246153,-3.42029 0.04677,4.2095 -0.08614,6.77215 z"
       id="path932"
       inkscape:connector-curvature="0"
       sodipodi:nodetypes="cccccc" />
    <path
       style="fill:#c88567;fill-opacity:1;stroke:#000000;stroke-width:0.26458332px;stroke-linecap:butt;stroke-linejoin:miter;stroke-opacity:1"
       d="m 65.55052,158.1599 1.603534,-4.15847 0.08319,-5.86263 -1.802982,5.59805 z"
       id="path934"
       inkscape:connector-curvature="0" />
    <path
       style="fill:#de9e81;fill-opacity:1;stroke:#000000;stroke-width:0.26458332px;stroke-linecap:butt;stroke-linejoin:miter;stroke-opacity:1"
       d="m 73.71953,151.24766 2.94349,-3.27422 5.060156,2.94349 -4.45212,0.75151 z"
       id="path936"
       inkscape:connector-curvature="0" />
    <path
       style="fill:#f3b999;fill-opacity:1;stroke:#000000;stroke-width:0.26458332px;stroke-linecap:butt;stroke-linejoin:miter;stroke-opacity:1"
       d="m 48.268876,146.53394 11.626175,0.2158 9.491927,-6.31693 -2.149734,7.70599 -1.802982,5.59805 z"
       id="path940"
       inkscape:connector-curvature="0" />
    <path
       style="fill:#e8b08c;fill-opacity:1;stroke:#000000;stroke-width:0.26458332px;stroke-linecap:butt;stroke-linejoin:miter;stroke-opacity:1"
       d="m 59.895051,146.74974 6.548438,-7.77214 -2.745052,-6.11849 7.408333,0.8599 -1.719792,6.7138 z"
       id="path942"
       inkscape:connector-curvature="0" />
    <path
       style="fill:#e7ab8a;fill-opacity:1;stroke:#000000;stroke-width:0.26458332px;stroke-linecap:butt;stroke-linejoin:miter;stroke-opacity:1"
       d="m 63.698437,132.85911 3.075781,-5.25859 8.598958,-1.45521 2.414323,3.73724 -3.13912,1.87138 -3.541609,1.96508 z"
       id="path944"
       inkscape:connector-curvature="0" />
    <path
       style="fill:#795544;fill-opacity:1;stroke:#000000;stroke-width:0.26458332px;stroke-linecap:butt;stroke-linejoin:miter;stroke-opacity:1"
       d="m 75.373176,126.14531 6.416146,-4.29948 2.38125,4.3987 -6.383073,3.63802 z"
       id="path948"
       inkscape:connector-curvature="0" />
    <path
       style="fill:#34241c;fill-opacity:1;stroke:#000000;stroke-width:0.26458332px;stroke-linecap:butt;stroke-linejoin:miter;stroke-opacity:1"
       d="m 81.789322,121.84583 10.451041,-2.05052 1.12448,4.10104 -9.194271,2.34818 z"
       id="path950"
       inkscape:connector-curvature="0" />
    <path
       style="fill:#3a271a;fill-opacity:1;stroke:#000000;stroke-width:0.26458332px;stroke-linecap:butt;stroke-linejoin:miter;stroke-opacity:1"
       d="m 92.240361,119.79531 4.861721,1.12448 2.083594,2.77813 -3.208073,0.23151 -2.61276,-0.0331 z"
       id="path952"
       inkscape:connector-curvature="0" />
    <path
       style="fill:#6d4939;fill-opacity:1;stroke:#000000;stroke-width:0.26458332px;stroke-linecap:butt;stroke-linejoin:miter;stroke-opacity:1"
       d="m 63.698437,132.85911 3.075781,-5.25859 -12.354803,1.3237 -0.07016,4.09256 z"
       id="path954"
       inkscape:connector-curvature="0" />
    <path
       style="fill:#2e241e;fill-opacity:1;stroke:#000000;stroke-width:0.26458332px;stroke-linecap:butt;stroke-linejoin:miter;stroke-opacity:1"
       d="m 54.349255,133.01678 -8.068196,1.91766 0.865285,-4.65383 7.273071,-1.35639 z"
       id="path956"
       inkscape:connector-curvature="0" />
    <path
       style="fill:#3d2b22;fill-opacity:1;stroke:#000000;stroke-width:0.26458332px;stroke-linecap:butt;stroke-linejoin:miter;stroke-opacity:1"
       d="m 46.281059,134.93444 -6.384401,3.46114 1.800728,-5.44896 5.448958,-2.66601 z"
       id="path958"
       inkscape:connector-curvature="0" />
    <path
       style="fill:#d7a77d;fill-opacity:1;stroke:#000000;stroke-width:0.26458332px;stroke-linecap:butt;stroke-linejoin:miter;stroke-opacity:1"
       d="m 39.428935,144.33564 0.467723,-5.94006 1.800728,-5.44896 -5.515616,-4.15547 z"
       id="path960"
       inkscape:connector-curvature="0" />
    <path
       style="fill:#c79772;fill-opacity:1;stroke:#000000;stroke-width:0.26458332px;stroke-linecap:butt;stroke-linejoin:miter;stroke-opacity:1"
       d="m 39.896658,138.39558 7.629123,1.01197 -4.027665,3.71202 -4.069181,1.21607 z"
       id="path962"
       inkscape:connector-curvature="0" />
    <path
       style="fill:#b98369;fill-opacity:1;stroke:#000000;stroke-width:0.26458332px;stroke-linecap:butt;stroke-linejoin:miter;stroke-opacity:1"
       d="m 47.525781,139.40755 -1.244722,-4.47311 -6.384401,3.46114 z"
       id="path964"
       inkscape:connector-curvature="0" />
    <path
       style="fill:#b38065;fill-opacity:1;stroke:#000000;stroke-width:0.26458332px;stroke-linecap:butt;stroke-linejoin:miter;stroke-opacity:1"
       d="m 47.525781,139.40755 6.613001,-2.9764 0.210473,-3.41437 -8.068196,1.91766 z"
       id="path966"
       inkscape:connector-curvature="0" />
    <path
       style="fill:#b98362;fill-opacity:1;stroke:#000000;stroke-width:0.26458332px;stroke-linecap:butt;stroke-linejoin:miter;stroke-opacity:1"
       d="m 47.525781,139.40755 -0.274199,2.69472 1.017294,4.43167 -4.77076,-3.41437 z"
       id="path968"
       inkscape:connector-curvature="0" />
    <path
       style="fill:#926f5a;fill-opacity:1;stroke:#000000;stroke-width:0.26458332px;stroke-linecap:butt;stroke-linejoin:miter;stroke-opacity:1"
       d="m 47.251582,142.10227 6.8872,-5.67112 -6.613001,2.9764 z"
       id="path970"
       inkscape:connector-curvature="0" />
    <path
       style="fill:#cd9475;fill-opacity:1;stroke:#000000;stroke-width:0.26458332px;stroke-linecap:butt;stroke-linejoin:miter;stroke-opacity:1"
       d="m 47.251582,142.10227 8.524227,0.0819 4.119242,4.56562 -11.626175,-0.2158 z"
       id="path972"
       inkscape:connector-curvature="0" />
    <path
       style="fill:#8d5e48;fill-opacity:1;stroke:#000000;stroke-width:0.26458332px;stroke-linecap:butt;stroke-linejoin:miter;stroke-opacity:1"
       d="m 54.138782,136.43115 6.75858,0.28063 2.801075,-3.85267 -9.349182,0.15767 z"
       id="path974"
       inkscape:connector-curvature="0" />
    <path
       style="fill:#99644b;fill-opacity:1;stroke:#000000;stroke-width:0.26458332px;stroke-linecap:butt;stroke-linejoin:miter;stroke-opacity:1"
       d="m 60.897362,136.71178 2.408766,1.94105 3.137361,0.32477 -2.745052,-6.11849 z"
       id="path976"
       inkscape:connector-curvature="0" />
    <path
       style="fill:#ac715d;fill-opacity:1;stroke:#000000;stroke-width:0.26458332px;stroke-linecap:butt;stroke-linejoin:miter;stroke-opacity:1"
       d="m 63.306128,138.65283 -7.530319,3.53134 4.119242,4.56557 6.548438,-7.77214 z"
       id="path978"
       inkscape:connector-curvature="0" />
    <path
       style="fill:#f0dcd4;fill-opacity:1;stroke:#000000;stroke-width:0.26458332px;stroke-linecap:butt;stroke-linejoin:miter;stroke-opacity:1"
       d="m 55.775809,142.18417 2.234086,-2.87584 5.296233,-0.6555 z"
       id="path980"
       inkscape:connector-curvature="0" />
    <path
       style="fill:#f0dcd4;fill-opacity:1;stroke:#000000;stroke-width:0.26458332px;stroke-linecap:butt;stroke-linejoin:miter;stroke-opacity:1"
       d="m 58.009895,139.30833 -0.595312,-2.61276 3.482779,0.0162 2.408766,1.94105 z"
       id="path982"
       inkscape:connector-curvature="0" />
    <path
       style="fill:#f0dcd4;fill-opacity:1;stroke:#000000;stroke-width:0.26458332px;stroke-linecap:butt;stroke-linejoin:miter;stroke-opacity:1"
       d="m 55.775809,142.18417 -3.85133,-0.95761 -4.672897,0.87571 z"
       id="path984"
       inkscape:connector-curvature="0" />
    <path
       style="fill:#f0dcd4;fill-opacity:1;stroke:#000000;stroke-width:0.26458332px;stroke-linecap:butt;stroke-linejoin:miter;stroke-opacity:1"
       d="m 51.924479,141.22656 -0.165365,-2.84427 -4.507532,3.71998 z"
       id="path986"
       inkscape:connector-curvature="0" />
    <path
       style="fill:#261b14;fill-opacity:1;stroke:#000000;stroke-width:0.26458332px;stroke-linecap:butt;stroke-linejoin:miter;stroke-opacity:1"
       d="m 54.138782,136.43115 -2.379668,1.95114 0.165365,2.84427 1.934765,-1.52135 z"
       id="path988"
       inkscape:connector-curvature="0" />
    <path
       style="fill:#2c1b13;fill-opacity:1;stroke:#000000;stroke-width:0.26458332px;stroke-linecap:butt;stroke-linejoin:miter;stroke-opacity:1"
       d="m 53.859244,139.70521 1.916565,2.47896 -3.85133,-0.95761 z"
       id="path990"
       inkscape:connector-curvature="0" />
    <path
       style="fill:#362119;fill-opacity:1;stroke:#000000;stroke-width:0.26458332px;stroke-linecap:butt;stroke-linejoin:miter;stroke-opacity:1"
       d="m 53.859244,139.70521 4.150651,-0.39688 -3.871113,-2.87718 z"
       id="path992"
       inkscape:connector-curvature="0" />
    <path
       style="fill:#2a160f;fill-opacity:1;stroke:#000000;stroke-width:0.26458332px;stroke-linecap:butt;stroke-linejoin:miter;stroke-opacity:1"
       d="m 53.859244,139.70521 1.916565,2.47896 2.234086,-2.87584 z"
       inkscape:connector-curvature="0"
       id="path994" />
    <path
       style="fill:#180e05;fill-opacity:1;stroke:#000000;stroke-width:0.26458332px;stroke-linecap:butt;stroke-linejoin:miter;stroke-opacity:1"
       d="m 54.138782,136.43115 3.871113,2.87718 -0.595312,-2.61276 z"
       inkscape:connector-curvature="0"
       id="path998" />
    <path
       style="fill:#d0926d;fill-opacity:1;stroke:#000000;stroke-width:0.26458332px;stroke-linecap:butt;stroke-linejoin:miter;stroke-opacity:1"
       d="m 76.89453,135.17422 0.892969,-5.29167 -3.13912,1.87138 z"
       id="path1002"
       inkscape:connector-curvature="0" />
    <path
       style="fill:#824e38;fill-opacity:1;stroke:#000000;stroke-width:0.26458332px;stroke-linecap:butt;stroke-linejoin:miter;stroke-opacity:1"
       d="m 76.89453,135.17422 3.671094,-1.55443 1.984375,-3.30729 -4.7625,-0.42995 z"
       id="path1004"
       inkscape:connector-curvature="0" />
    <path
       style="fill:#a36f58;fill-opacity:1;stroke:#000000;stroke-width:0.26458332px;stroke-linecap:butt;stroke-linejoin:miter;stroke-opacity:1"
       d="m 80.565624,133.61979 1.885156,2.31511 -5.55625,-0.76068 z"
       id="path1006"
       inkscape:connector-curvature="0" />
    <path
       style="fill:#aa7260;fill-opacity:1;stroke:#000000;stroke-width:0.26458332px;stroke-linecap:butt;stroke-linejoin:miter;stroke-opacity:1"
       d="m 80.565624,133.61979 6.796484,0.46302 4.382162,2.48047 -9.29349,-0.62838 z"
       id="path1008"
       inkscape:connector-curvature="0" />
    <path
       style="fill:#b87d5b;fill-opacity:1;stroke:#000000;stroke-width:0.26458332px;stroke-linecap:butt;stroke-linejoin:miter;stroke-opacity:1"
       d="m 87.362106,134.08281 7.209898,-3.93567 1.934766,0.79373 -4.7625,5.62239 z"
       id="path1010"
       inkscape:connector-curvature="0"
       sodipodi:nodetypes="ccccc" />
    <path
       style="fill:#93654d;fill-opacity:1;stroke:#000000;stroke-width:0.26458332px;stroke-linecap:butt;stroke-linejoin:miter;stroke-opacity:1"
       d="m 82.549999,130.3125 5.672005,-1.48828 -4.051432,-2.57969 -6.383073,3.63802 z"
       id="path1012"
       inkscape:connector-curvature="0" />
    <path
       style="fill:#b37f63;fill-opacity:1;stroke:#000000;stroke-width:0.26458332px;stroke-linecap:butt;stroke-linejoin:miter;stroke-opacity:1"
       d="m 84.170572,126.24453 9.194271,-2.34818 1.207161,6.25079 -6.35,-1.32292 z"
       id="path1014"
       inkscape:connector-curvature="0" />
    <path
       style="fill:#f0dcd4;fill-opacity:1;stroke:#000000;stroke-width:0.26458332px;stroke-linecap:butt;stroke-linejoin:miter;stroke-opacity:1"
       d="m 87.362106,134.08281 2.728518,-2.24896 4.48138,-1.68671 z"
       id="path1018"
       inkscape:connector-curvature="0" />
    <path
       style="fill:#f0dcd4;fill-opacity:1;stroke:#000000;stroke-width:0.26458332px;stroke-linecap:butt;stroke-linejoin:miter;stroke-opacity:1"
       d="m 90.090624,131.83385 -0.428382,-2.69916 4.909762,1.01245 z"
       id="path1020"
       inkscape:connector-curvature="0" />
    <path
       style="fill:#f0dcd4;fill-opacity:1;stroke:#000000;stroke-width:0.26458332px;stroke-linecap:butt;stroke-linejoin:miter;stroke-opacity:1"
       d="m 87.362106,134.08281 -2.786335,-0.85555 -4.010147,0.39253 z"
       id="path1022"
       inkscape:connector-curvature="0" />
    <path
       style="fill:#f0dcd4;fill-opacity:1;stroke:#000000;stroke-width:0.26458332px;stroke-linecap:butt;stroke-linejoin:miter;stroke-opacity:1"
       d="m 84.575771,133.22726 3.870396,-0.0702 -1.084061,0.92571 z"
       id="path1024"
       inkscape:connector-curvature="0" />
    <path
       style="fill:#f0dcd4;fill-opacity:1;stroke:#000000;stroke-width:0.26458332px;stroke-linecap:butt;stroke-linejoin:miter;stroke-opacity:1"
       d="m 84.575771,133.22726 -2.025772,-2.91476 -1.984375,3.30729 z"
       id="path1026"
       inkscape:connector-curvature="0" />
    <path
       style="fill:#f0dcd4;fill-opacity:1;stroke:#000000;stroke-width:0.26458332px;stroke-linecap:butt;stroke-linejoin:miter;stroke-opacity:1"
       d="m 84.575771,133.22726 0.175395,-3.51961 -2.201167,0.60485 z"
       id="path1028"
       inkscape:connector-curvature="0" />
    <path
       style="fill:#362219;fill-opacity:1;stroke:#000000;stroke-width:0.26458332px;stroke-linecap:butt;stroke-linejoin:miter;stroke-opacity:1"
       d="m 84.751166,129.70765 3.695001,3.44941 -3.870396,0.0702 z"
       id="path1030"
       inkscape:connector-curvature="0" />
    <path
       style="fill:#2d1910;fill-opacity:1;stroke:#000000;stroke-width:0.26458332px;stroke-linecap:butt;stroke-linejoin:miter;stroke-opacity:1"
       d="m 88.446167,133.15706 1.644457,-1.32321 -3.012543,0.0136 z"
       id="path1036"
       inkscape:connector-curvature="0" />
    <path
       style="fill:#2a231c;fill-opacity:1;stroke:#000000;stroke-width:0.26458332px;stroke-linecap:butt;stroke-linejoin:miter;stroke-opacity:1"
       d="m 84.751166,129.70765 2.95834,0.17539 0.584653,1.26285 -1.216078,0.70156 z"
       id="path1038"
       inkscape:connector-curvature="0" />
    <path
       style="fill:#1c110b;fill-opacity:1;stroke:#000000;stroke-width:0.26458332px;stroke-linecap:butt;stroke-linejoin:miter;stroke-opacity:1"
       d="m 84.751166,129.70765 3.470838,-0.88343 1.440236,0.31047 -1.952734,0.74835 z"
       id="path1040"
       inkscape:connector-curvature="0" />
    <path
       style="fill:#21140b;fill-opacity:1;stroke:#000000;stroke-width:0.26458332px;stroke-linecap:butt;stroke-linejoin:miter;stroke-opacity:1"
       d="m 88.294159,131.14589 1.368081,-2.0112 -1.952734,0.74835 z"
       id="path1042"
       inkscape:connector-curvature="0" />
    <path
       style="fill:#2f2019;fill-opacity:1;stroke:#000000;stroke-width:0.26458332px;stroke-linecap:butt;stroke-linejoin:miter;stroke-opacity:1"
       d="m 87.078081,131.84745 1.216078,-0.70156 1.368081,-2.0112 0.428384,2.69916 z"
       id="path1044"
       inkscape:connector-curvature="0" />
    <path
       style="fill:#ae7a5c;fill-opacity:1;stroke:#000000;stroke-width:0.26458332px;stroke-linecap:butt;stroke-linejoin:miter;stroke-opacity:1"
       d="m 96.50677,130.94087 -1.934766,-0.79373 -1.207161,-6.25079 5.820833,-0.19843 z"
       id="path1046"
       inkscape:connector-curvature="0" />
    <path
       style="fill:#a57352;fill-opacity:1;stroke:#000000;stroke-width:0.26458332px;stroke-linecap:butt;stroke-linejoin:miter;stroke-opacity:1"
       d="m 96.50677,130.94089 2.678906,-7.24297 0.297656,-1.52136 1.984378,6.18464 z"
       id="path1048"
       inkscape:connector-curvature="0" />
    <path
       style="fill:#a87753;fill-opacity:1;stroke:#000000;stroke-width:0.26458332px;stroke-linecap:butt;stroke-linejoin:miter;stroke-opacity:1"
       d="m 99.185676,123.69792 0.297653,-1.52136 -1.455205,-6.31692 -4.464844,-7.87136 3.538799,12.93151 z"
       id="path1050"
       inkscape:connector-curvature="0" />
    <path
       style="fill:#eab48b;fill-opacity:1;stroke:#000000;stroke-width:0.26458332px;stroke-linecap:butt;stroke-linejoin:miter;stroke-opacity:1"
       d="m 36.18177,128.79115 0.627925,-12.42526 5.846522,-8.51254 -0.958831,25.09327 z"
       id="path1052"
       inkscape:connector-curvature="0" />
    <path
       style="fill:#f0bc93;fill-opacity:1;stroke:#000000;stroke-width:0.26458332px;stroke-linecap:butt;stroke-linejoin:miter;stroke-opacity:1"
       d="m 41.697386,132.94662 5.448958,-2.66601 2.993419,-10.96807 -7.810952,-0.98222 z"
       id="path1054"
       inkscape:connector-curvature="0" />
    <path
       style="fill:#f6c6a2;fill-opacity:1;stroke:#000000;stroke-width:0.26458332px;stroke-linecap:butt;stroke-linejoin:miter;stroke-opacity:1"
       d="m 50.139763,119.31254 1.216076,-14.35906 -8.699622,2.89987 -0.327406,10.47697 z"
       id="path1056"
       inkscape:connector-curvature="0" />
    <path
       style="fill:#f0c29e;fill-opacity:1;stroke:#000000;stroke-width:0.26458332px;stroke-linecap:butt;stroke-linejoin:miter;stroke-opacity:1"
       d="m 51.355839,104.95348 11.318864,-3.92886 5.612659,15.24773 -18.147599,3.04019 z"
       id="path1058"
       inkscape:connector-curvature="0" />
    <path
       style="fill:#f6be9d;fill-opacity:1;stroke:#000000;stroke-width:0.26458332px;stroke-linecap:butt;stroke-linejoin:miter;stroke-opacity:1"
       d="m 50.139763,119.31254 18.147599,-3.04019 -1.513144,11.32817 -12.354803,1.3237 -7.273071,1.35639 z"
       id="path1060"
       inkscape:connector-curvature="0" />
    <path
       style="fill:#edb594;fill-opacity:1;stroke:#000000;stroke-width:0.26458332px;stroke-linecap:butt;stroke-linejoin:miter;stroke-opacity:1"
       d="m 62.674703,101.02462 19.737856,-2.432153 -0.280633,13.844563 -13.844564,3.83532 z"
       id="path1062"
       inkscape:connector-curvature="0" />
    <path
       style="fill:#f2b898;fill-opacity:1;stroke:#000000;stroke-width:0.26458332px;stroke-linecap:butt;stroke-linejoin:miter;stroke-opacity:1"
       d="m 68.287362,116.27235 13.844564,-3.83532 -0.342604,9.4088 -6.416146,4.29948 -8.598958,1.45521 z"
       id="path1064"
       inkscape:connector-curvature="0" />
    <path
       style="fill:#d79268;fill-opacity:1;stroke:#000000;stroke-width:0.26458332px;stroke-linecap:butt;stroke-linejoin:miter;stroke-opacity:1"
       d="m 82.412559,98.592467 11.150721,9.395813 -11.431354,4.44875 z"
       id="path1066"
       inkscape:connector-curvature="0" />
    <path
       style="fill:#e2a27c;fill-opacity:1;stroke:#000000;stroke-width:0.26458332px;stroke-linecap:butt;stroke-linejoin:miter;stroke-opacity:1"
       d="m 81.789322,121.84583 10.451039,-2.05052 -10.108435,-7.35828 z"
       id="path1068"
       inkscape:connector-curvature="0" />
    <path
       style="fill:#c4885f;fill-opacity:1;stroke:#000000;stroke-width:0.26458332px;stroke-linecap:butt;stroke-linejoin:miter;stroke-opacity:1"
       d="m 82.131926,112.43703 11.431354,-4.44875 3.538799,12.93151 -4.861718,-1.12448 z"
       id="path1070"
       inkscape:connector-curvature="0" />
    <path
       style="fill:#20160d;fill-opacity:1;stroke:#000000;stroke-width:0.26458332px;stroke-linecap:butt;stroke-linejoin:miter;stroke-opacity:1"
       d="m 103.98125,137.85312 0.40639,-19.97532 -6.359516,-2.01816 1.455203,6.31692 1.984383,6.18464 z"
       id="path1083"
       inkscape:connector-curvature="0"
       sodipodi:nodetypes="cccccc" />
    <path
       style="fill:#201710;fill-opacity:1;stroke:#000000;stroke-width:0.26458332px;stroke-linecap:butt;stroke-linejoin:miter;stroke-opacity:1"
       d="m 104.38764,117.8778 0.41611,-9.89334 -22.391191,-9.391993 11.150721,9.395813 4.464844,7.87136 z"
       id="path1085"
       inkscape:connector-curvature="0"
       sodipodi:nodetypes="cccccc" />
    <path
       style="fill:#1b120b;fill-opacity:1;stroke:#000000;stroke-width:0.26458332px;stroke-linecap:butt;stroke-linejoin:miter;stroke-opacity:1"
       d="M 104.80375,107.98446 103.52264,97.327354 82.412559,98.592467 Z"
       id="path1087"
       inkscape:connector-curvature="0"
       sodipodi:nodetypes="cccc" />
    <path
       style="fill:#3c2c1d;fill-opacity:1;stroke:#000000;stroke-width:0.26458332px;stroke-linecap:butt;stroke-linejoin:miter;stroke-opacity:1"
       d="M 39.428935,144.33564 32.54375,130.90781 36.809695,116.36589 36.18177,128.79115 Z"
       id="path1089"
       inkscape:connector-curvature="0" />
    <path
       style="fill:#1f1711;fill-opacity:1;stroke:#000000;stroke-width:0.26458332px;stroke-linecap:butt;stroke-linejoin:miter;stroke-opacity:1"
       d="m 32.54375,130.90781 -6.506435,-23.38089 16.618902,0.32643 -5.846522,8.51254 z"
       id="path1091"
       inkscape:connector-curvature="0"
       sodipodi:nodetypes="ccccc" />
    <path
       style="fill:#140d07;fill-opacity:1;stroke:#000000;stroke-width:0.26458332px;stroke-linecap:butt;stroke-linejoin:miter;stroke-opacity:1"
       d="m 62.674703,101.02462 -5.392412,-11.127224 -8.069792,4.696354 3.307292,3.505729 -1.163952,6.854001 z"
       id="path1093"
       inkscape:connector-curvature="0" />
    <path
       style="fill:#110e09;fill-opacity:1;stroke:#000000;stroke-width:0.26458332px;stroke-linecap:butt;stroke-linejoin:miter;stroke-opacity:1"
       d="m 51.355839,104.95348 1.163952,-6.854003 -3.307292,-3.505727 -7.871354,-3.836458 -5.490104,-9.194271 -6.019271,7.342188 7.342188,11.244791 5.754687,3.175 -0.272428,4.52835 z"
       id="path1095"
       inkscape:connector-curvature="0" />
    <path
       style="fill:#1a130b;fill-opacity:1;stroke:#000000;stroke-width:0.26458332px;stroke-linecap:butt;stroke-linejoin:miter;stroke-opacity:1"
       d="m 42.656217,107.85335 0.272428,-4.52835 -5.754687,-3.175 -12.605584,2.04434 1.468941,5.33258 z"
       id="path1097"
       inkscape:connector-curvature="0"
       sodipodi:nodetypes="cccccc" />
    <path
       style="fill:#160f09;fill-opacity:1;stroke:#000000;stroke-width:0.26458332px;stroke-linecap:butt;stroke-linejoin:miter;stroke-opacity:1"
       d="m 57.282291,89.897396 -8.171516,-4.401137 -5.519116,-9.447977 -2.250514,14.70901 7.871354,3.836458 z"
       id="path1099"
       inkscape:connector-curvature="0" />
    <path
       style="fill:#17120c;fill-opacity:1;stroke:#000000;stroke-width:0.26458332px;stroke-linecap:butt;stroke-linejoin:miter;stroke-opacity:1"
       d="m 29.83177,88.905209 -4.672279,-2.234633 10.69155,-5.107555 z"
       id="path1101"
       inkscape:connector-curvature="0"
       sodipodi:nodetypes="cccc" />
    <path
       style="fill:#251c13;fill-opacity:1;stroke:#000000;stroke-width:0.26458332px;stroke-linecap:butt;stroke-linejoin:miter;stroke-opacity:1"
       d="m 41.341145,90.757292 2.250514,-14.70901 -2.31666,-3.481094 -5.423958,8.995833 z"
       id="path1103"
       inkscape:connector-curvature="0"
       sodipodi:nodetypes="ccccc" />
    <path
       style="fill:#29180e;fill-opacity:1;stroke:#000000;stroke-width:0.26458332px;stroke-linecap:butt;stroke-linejoin:miter;stroke-opacity:1"
       d="M 82.412559,98.592467 76.464582,93.138542 57.282291,89.897396 62.674703,101.02462 Z"
       id="path1105"
       inkscape:connector-curvature="0" />
    <path
       style="fill:#1c130c;fill-opacity:1;stroke:#000000;stroke-width:0.26458332px;stroke-linecap:butt;stroke-linejoin:miter;stroke-opacity:1"
       d="M 57.282291,89.897396 49.110775,85.496259 43.591659,76.048282 46.103645,71.575 56.290103,81.761459 69.056249,91.947917 Z"
       id="path1107"
       inkscape:connector-curvature="0" />
    <path
       style="fill:#0c0703;fill-opacity:1;stroke:#000000;stroke-width:0.26458332px;stroke-linecap:butt;stroke-linejoin:miter;stroke-opacity:1"
       d="M 103.52264,97.327354 103.38495,86.568295 82.412559,98.592467 Z"
       id="path1109"
       inkscape:connector-curvature="0"
       sodipodi:nodetypes="cccc" />
    <path
       style="fill:#0d0804;fill-opacity:1;stroke:#000000;stroke-width:0.26458332px;stroke-linecap:butt;stroke-linejoin:miter;stroke-opacity:1"
       d="M 103.38495,86.568295 93.194,76.84906 82.412559,98.592467 Z"
       id="path1111"
       inkscape:connector-curvature="0"
       sodipodi:nodetypes="cccc" />
    <path
       style="fill:#261d16;fill-opacity:1;stroke:#000000;stroke-width:0.26458332px;stroke-linecap:butt;stroke-linejoin:miter;stroke-opacity:1"
       d="m 82.412559,98.592467 5.653839,-10.498421 -30.392976,-11.046444 1.708843,7.26258 9.673984,7.637735 7.408331,1.190625 z"
       id="path1113"
       inkscape:connector-curvature="0"
       sodipodi:nodetypes="ccccccc" />
    <path
       style="fill:#20190f;fill-opacity:1;stroke:#000000;stroke-width:0.26458332px;stroke-linecap:butt;stroke-linejoin:miter;stroke-opacity:1"
       d="m 59.382265,84.310182 -7.639682,-7.183792 -0.949407,-5.480659 6.880246,5.401871 z"
       id="path1115"
       inkscape:connector-curvature="0" />
    <path
       style="fill:#130e09;fill-opacity:1;stroke:#000000;stroke-width:0.26458332px;stroke-linecap:butt;stroke-linejoin:miter;stroke-opacity:1"
       d="M 88.066398,88.094046 57.673422,77.047602 56.014905,71.861507 93.194,76.84906 Z"
       id="path1117"
       inkscape:connector-curvature="0"
       sodipodi:nodetypes="ccccc" />
    <path
       style="fill:#29180e;fill-opacity:1;stroke:#000000;stroke-width:0.26458332px;stroke-linecap:butt;stroke-linejoin:miter;stroke-opacity:1"
       d="m 35.851041,81.563021 -15.074563,-0.408032 4.383013,5.515587 z"
       id="path1119"
       inkscape:connector-curvature="0"
       sodipodi:nodetypes="cccc" />
    <path
       style="fill:#140d07;fill-opacity:1;stroke:#000000;stroke-width:0.26458332px;stroke-linecap:butt;stroke-linejoin:miter;stroke-opacity:1"
       d="m 37.173958,100.15 -7.342188,-11.244791 -4.672279,-2.234634 -4.186268,-1.646859 2.157739,9.407741 1.437412,7.762883 z"
       id="path1121"
       inkscape:connector-curvature="0"
       sodipodi:nodetypes="ccccccc" />
  </g>
</svg>
