<svg x="0" y="0" width="700" height="350" viewBox="0 0 700 350" xmlns="http://www.w3.org/2000/svg" xmlns:xlink="http://www.w3.org/1999/xlink" xmlns:fi="http://pattern.flaticon.com/"><rect x="0px" y="0px" width="100%" height="100%" opacity="0" fill="#ffffff"/><defs><path d="M343.746,154.841c-12.696,0-24.804,2.558-35.842,7.18l-26.394-51.211h36.89c4.002,0,7.258,3.256,7.258,7.258  s-3.256,7.258-7.258,7.258h-7.871c-4.143,0-7.5,3.358-7.5,7.5s3.357,7.5,7.5,7.5h7.871c12.273,0,22.258-9.985,22.258-22.258  s-9.984-22.258-22.258-22.258h-49.192c-2.615,0-5.042,1.363-6.404,3.596c-1.361,2.233-1.461,5.015-0.263,7.34l13.125,25.467H167.423  l-10.92-21.403h17.269c4.143,0,7.5-3.358,7.5-7.5s-3.357-7.5-7.5-7.5h-49.193c-4.143,0-7.5,3.358-7.5,7.5s3.357,7.5,7.5,7.5h15.084  l14.576,28.568l-17.132,26.543c-13.113-7.065-28.101-11.08-44.011-11.08C41.763,154.841,0,196.603,0,247.936  c0,51.333,41.763,93.096,93.096,93.096c48.808,0,88.961-37.757,92.793-85.596h22.007l-8.549,27.818h-4.922  c-4.143,0-7.5,3.358-7.5,7.5s3.357,7.5,7.5,7.5h27c4.143,0,7.5-3.358,7.5-7.5s-3.357-7.5-7.5-7.5h-6.386l9.869-32.114l62.406-96.327  l7.269,14.103c-26.357,16.458-43.933,45.723-43.933,79.02c0,51.333,41.763,93.096,93.097,93.096  c51.333,0,93.096-41.763,93.096-93.096C436.842,196.603,395.079,154.841,343.746,154.841z M162.121,154.826l43.678,85.61h-19.911  c-2.162-26.985-15.882-50.758-36.193-66.359L162.121,154.826z M170.824,240.436h-63.96l34.661-53.699  C157.734,199.592,168.745,218.724,170.824,240.436z M93.096,326.032C50.033,326.032,15,290.999,15,247.936  c0-43.062,35.033-78.096,78.096-78.096c12.914,0,25.095,3.17,35.837,8.743l-42.139,65.285c-1.489,2.307-1.598,5.244-0.284,7.655  c1.313,2.411,3.84,3.912,6.586,3.912h77.728C167.036,294.992,133.628,326.032,93.096,326.032z M218.819,232.949l-43.743-85.737  h99.289L218.819,232.949z M343.746,326.032c-43.063,0-78.097-35.034-78.097-78.096c0-27.498,14.298-51.704,35.838-65.623  l35.592,69.059c1.332,2.583,3.954,4.065,6.673,4.065c1.157,0,2.331-0.269,3.43-0.835c3.683-1.897,5.129-6.42,3.231-10.103  l-35.603-69.079c8.956-3.586,18.714-5.581,28.936-5.581c43.063,0,78.096,35.034,78.096,78.096  C421.842,290.999,386.809,326.032,343.746,326.032z" transform="matrix(0.15193018317222595 -0.07596509158611298 0.07596509158611298 0.15193018317222595 170.22901916503906 118.37564849853516)" id="L1_76"/><g transform="matrix(0.12507934868335724 0 0 0.12507934868335724 12.984273910522461 276.97967529296875)" id="L1_77"><path d="M123.17,185.756c-9.515-7.433-23.304-5.74-30.738,3.774c-2.55,3.264-1.971,7.977,1.292,10.528    c1.371,1.071,2.998,1.59,4.612,1.59c2.229,0,4.436-0.99,5.915-2.883c2.343-2.998,6.687-3.53,9.683-1.189    c3.264,2.55,7.977,1.971,10.527-1.293C127.013,193.019,126.434,188.306,123.17,185.756z"/><path d="M200.163,176.303c-9.516-7.434-23.305-5.741-30.738,3.774c-2.55,3.264-1.972,7.977,1.292,10.528    c1.371,1.071,2.998,1.59,4.612,1.59c2.229,0,4.436-0.99,5.915-2.883c2.342-2.998,6.685-3.532,9.683-1.189    c3.264,2.55,7.977,1.971,10.528-1.292C204.005,183.567,203.426,178.854,200.163,176.303z"/><path d="M191.497,233.955l-0.855-6.97c-0.37-3.015-1.892-5.705-4.286-7.576c-2.394-1.87-5.372-2.693-8.386-2.326l-43.071,5.288    c-3.015,0.37-5.705,1.892-7.575,4.286c-1.871,2.394-2.696,5.372-2.326,8.386l0.856,6.972    c2.223,18.101,18.753,31.013,36.852,28.792C180.804,268.585,193.72,252.053,191.497,233.955z M160.878,255.918    c-9.878,1.222-18.921-5.843-20.135-15.732l-0.414-3.369l35.867-4.403l0.414,3.369    C177.824,245.672,170.767,254.704,160.878,255.918z"/><path d="M245.693,34.573C238.332,18.8,225.806,7.029,209.469,0.532c-3.59-1.427-7.677,0.105-9.442,3.541    c-8.069,15.704-27.562,26.881-52.142,29.899l-43.37,5.325c-4.111,0.504-7.035,4.247-6.53,8.358    c0.504,4.112,4.251,7.034,8.358,6.53l43.37-5.325c26.391-3.241,48.21-14.921,59.927-31.745    c24.445,13.052,30.377,40.412,27.727,60.982c-2.755,21.382-13.997,37.459-27.337,39.097L64.101,135.113    c-12.112,1.487-20.756,12.552-19.269,24.664l1.793,14.604l-11.366,1.396l-11.393-92.79c-0.604-4.914,0.743-9.769,3.79-13.67    c3.048-3.901,7.433-6.382,12.347-6.985l36.401-4.469c4.111-0.505,7.035-4.247,6.53-8.358s-4.249-7.031-8.358-6.53l-36.401,4.47    C19.822,49.697,6.724,66.461,8.978,84.814l11.776,95.912c-7.605,5.423-11.875,14.697-10.695,24.268    c1.598,12.977,12.648,22.763,25.703,22.763c1.016,0,2.076-0.064,3.186-0.196l13.995-1.724l1.374,11.174    c2.875,23.418,14.698,44.315,33.289,58.841c15.686,12.257,34.605,18.74,54.199,18.74c3.629,0,7.283-0.223,10.941-0.672    c11.3-1.39,22.033-4.858,31.897-10.307c9.553-5.27,17.958-12.19,24.983-20.567c2.662-3.174,2.247-7.904-0.927-10.566    c-3.174-2.662-7.904-2.246-10.566,0.927c-5.832,6.954-12.809,12.699-20.739,17.074c-8.182,4.519-17.09,7.396-26.477,8.551    c-19.437,2.387-38.642-2.94-54.075-14.999c-15.434-12.06-25.249-29.408-27.636-48.851l-2.29-18.62    c-0.243-1.974-1.26-3.771-2.828-4.996c-1.568-1.225-3.556-1.777-5.532-1.533l-21.405,2.637c-0.492,0.059-0.959,0.088-1.389,0.088    c-5.493,0-10.142-4.125-10.816-9.597c-0.602-4.882,2.152-9.585,6.696-11.437c0.008-0.003,0.015-0.008,0.023-0.011    c0.881-0.362,1.82-0.607,2.789-0.726l21.442-2.633c4.111-0.504,7.035-4.247,6.53-8.358l-2.707-22.049    c-0.479-3.903,2.307-7.469,6.209-7.948l138.481-17.003l10.356,84.318c1.356,11.008,0.258,21.883-3.263,32.326    c-1.323,3.925,0.785,8.18,4.71,9.503c0.795,0.268,1.603,0.395,2.397,0.395c3.13,0,6.05-1.975,7.106-5.105    c4.246-12.59,5.57-25.696,3.937-38.95l-10.458-85.146c16.93-6.03,29.814-25.211,33.05-50.322    C254.289,64.144,251.963,48.006,245.693,34.573z"/><path d="M419.566,386.938c-7.433-9.515-21.223-11.208-30.738-3.774c-3.264,2.55-3.843,7.264-1.292,10.528    c2.55,3.264,7.263,3.843,10.528,1.292c2.997-2.343,7.341-1.808,9.683,1.189c1.479,1.893,3.686,2.883,5.915,2.883    c1.615,0,3.241-0.52,4.612-1.591C421.538,394.915,422.116,390.202,419.566,386.938z"/><path d="M342.574,377.485c-7.433-9.514-21.222-11.209-30.737-3.774c-3.264,2.55-3.843,7.263-1.293,10.527    c2.549,3.263,7.262,3.844,10.527,1.293c2.997-2.341,7.341-1.809,9.684,1.189c1.479,1.893,3.685,2.883,5.915,2.883    c1.615,0,3.241-0.52,4.612-1.59C344.546,385.463,345.124,380.749,342.574,377.485z"/><path d="M377.101,419.78l-43.073-5.289c-3.013-0.367-5.993,0.457-8.385,2.326c-5.386,4.207-4.128,9.869-5.141,14.546    c-3.607,29.372,30.215,48.029,53.18,30.088c13.802-10.783,12.416-25.654,13.319-28.999    C387.765,426.23,383.325,420.545,377.101,419.78z M364.447,449.631c-3.803,2.971-8.535,4.283-13.326,3.696    c-9.911-1.216-16.948-10.222-15.732-20.135l0.414-3.37l35.867,4.404C371.233,435.816,371.895,443.812,364.447,449.631z"/><path d="M496.162,257.489c-5.515-7.058-13.448-11.547-22.339-12.638l-103.057-12.654c-3.847-0.472-7.364-2.563-9.651-5.736    c-7.136-9.903-16.841-17.584-28.065-22.214c-3.83-1.579-8.214,0.245-9.793,4.074c-1.579,3.83,0.245,8.214,4.074,9.793    c8.64,3.563,16.114,9.482,21.615,17.116c4.723,6.554,12.01,10.875,19.992,11.855l103.057,12.654    c10.144,1.246,17.384,10.512,16.137,20.655l-11.392,92.79l-11.367-1.396l1.793-14.605c1.486-12.112-7.158-23.176-19.27-24.663    l-145.929-17.918c-13.711-1.684-25.83-8.697-34.125-19.749c-8.29-11.045-11.634-24.657-9.415-38.33    c3.567-21.983,21.553-39.199,43.738-41.866c4.112-0.494,7.046-4.228,6.551-8.341c-0.494-4.112-4.231-7.049-8.341-6.551    c-28.784,3.459-52.123,25.812-56.755,54.356c-2.877,17.736,1.464,35.399,12.225,49.737c9.249,12.322,22.167,20.762,36.907,24.286    l-10.409,84.746c-1.387,11.287-0.618,22.546,2.286,33.462c0.893,3.357,3.926,5.574,7.243,5.574c0.638,0,1.287-0.082,1.933-0.254    c4.003-1.065,6.385-5.173,5.32-9.176c-2.409-9.056-3.046-18.401-1.894-27.778l10.355-84.314l138.481,17.003    c3.903,0.479,6.689,4.045,6.21,7.948l-2.708,22.049c-0.242,1.974,0.31,3.964,1.534,5.532c1.225,1.567,3.022,2.584,4.996,2.826    l21.442,2.633c0.912,0.112,1.794,0.345,2.631,0.673c4.667,1.797,7.492,6.502,6.878,11.501c-0.673,5.471-5.323,9.596-10.816,9.596    c-0.429,0-0.895-0.029-1.354-0.084l-21.44-2.64c-1.975-0.244-3.965,0.309-5.533,1.533s-2.585,3.021-2.828,4.996l-2.29,18.621    c-2.387,19.442-12.202,36.79-27.636,48.85C399.72,493.5,380.52,498.83,361.076,496.44c-10.201-1.25-19.817-4.533-28.581-9.758    c-8.475-5.052-15.741-11.656-21.595-19.627c-2.452-3.339-7.146-4.056-10.484-1.605c-3.338,2.452-4.057,7.146-1.605,10.484    c7.048,9.596,15.797,17.547,26.005,23.632c10.567,6.3,22.154,10.258,34.436,11.762c3.66,0.45,7.31,0.672,10.94,0.672    c19.592,0,38.514-6.484,54.199-18.74c18.591-14.527,30.413-35.424,33.288-58.84l1.374-11.175    c13.388,1.59,14.43,1.919,17.182,1.919c13.055,0,24.106-9.786,25.704-22.766c1.187-9.678-3.063-18.898-10.692-24.292    l11.772-95.885C504.113,273.331,501.677,264.548,496.162,257.489z"/><path d="M389.982,62.914c-4.142,0-7.5,3.358-7.5,7.5v18.359c0,4.142,3.358,7.5,7.5,7.5c4.142,0,7.5-3.358,7.5-7.5V70.414    C397.482,66.272,394.124,62.914,389.982,62.914z"/><path d="M389.982,119.35c-4.142,0-7.5,3.358-7.5,7.5v18.359c0,4.142,3.358,7.5,7.5,7.5c4.142,0,7.5-3.358,7.5-7.5V126.85    C397.482,122.708,394.124,119.35,389.982,119.35z"/><path d="M427.38,100.312h-18.359c-4.142,0-7.5,3.358-7.5,7.5c0,4.142,3.358,7.5,7.5,7.5h18.359c4.142,0,7.5-3.358,7.5-7.5    C434.88,103.67,431.522,100.312,427.38,100.312z"/><path d="M370.944,100.312h-18.359c-4.142,0-7.5,3.358-7.5,7.5c0,4.142,3.358,7.5,7.5,7.5h18.359c4.142,0,7.5-3.358,7.5-7.5    C378.444,103.67,375.086,100.312,370.944,100.312z"/><path d="M122.017,359.286c-4.142,0-7.5,3.358-7.5,7.5v18.359c0,4.142,3.358,7.5,7.5,7.5c4.142,0,7.5-3.358,7.5-7.5v-18.359    C129.517,362.644,126.159,359.286,122.017,359.286z"/><path d="M122.017,415.723c-4.142,0-7.5,3.358-7.5,7.5v18.359c0,4.142,3.358,7.5,7.5,7.5c4.142,0,7.5-3.358,7.5-7.5v-18.359    C129.517,419.08,126.159,415.723,122.017,415.723z"/><path d="M159.414,396.684h-18.359c-4.142,0-7.5,3.358-7.5,7.5c0,4.142,3.358,7.5,7.5,7.5h18.359c4.142,0,7.5-3.358,7.5-7.5    C166.914,400.042,163.557,396.684,159.414,396.684z"/><path d="M102.978,396.684H84.62c-4.142,0-7.5,3.358-7.5,7.5c0,4.142,3.358,7.5,7.5,7.5h18.359c4.142,0,7.5-3.358,7.5-7.5    C110.479,400.042,107.12,396.684,102.978,396.684z"/></g><g transform="matrix(0.12094103544950485 0 0 0.12094103544950485 273.9741516113281 193.97415161132812)" id="L1_78"><path d="M56,416c-30.872,0-56,25.128-56,56c0,4.424,3.576,8,8,8h96c4.424,0,8-3.576,8-8C112,441.128,86.872,416,56,416z     M16.808,464C19.992,448.36,32.36,436.072,48,432.88V448h16v-15.12c15.64,3.2,28.008,15.48,31.192,31.12H16.808z"/><path d="M472,344h-14.032c-0.44-1.112-0.896-2.216-1.392-3.328l9.928-9.928c3.128-3.128,3.128-8.184,0-11.312l-33.936-33.936    c-1.656-1.656-3.84-2.376-6.008-2.272C439.24,276.496,448,263.32,448,248V40c0-22.056-17.944-40-40-40H40C17.944,0,0,17.944,0,40    v208c0,22.056,17.944,40,40,40h104.4l-30.224,56H112h-12c-15.44,0-28,12.56-28,28s12.56,28,28,28h172c0,4.424,3.576,8,8,8h14.032    c0.44,1.112,0.896,2.216,1.392,3.328l-9.928,9.928c-3.128,3.128-3.128,8.184,0,11.312l33.936,33.936    c3.128,3.128,8.184,3.128,11.312,0l9.928-9.928c1.112,0.496,2.216,0.952,3.328,1.392V472c0,4.424,3.576,8,8,8h48    c4.424,0,8-3.576,8-8v-14.032c1.112-0.44,2.216-0.896,3.328-1.392l9.928,9.928c3.128,3.128,8.184,3.128,11.312,0l33.936-33.936    c3.128-3.128,3.128-8.184,0-11.312l-9.928-9.928c0.496-1.112,0.952-2.216,1.392-3.328H472c4.424,0,8-3.576,8-8v-48    C480,347.576,476.424,344,472,344z M16,40c0-13.232,10.768-24,24-24h368c13.232,0,24,10.768,24,24v168H16V40z M40,272    c-13.232,0-24-10.768-24-24v-24h416v24c0,13.232-10.768,24-24,24h-8h-48h-61.808H157.808H40z M421.152,285.6l-9.824,9.824    c-1.112-0.496-2.216-0.952-3.328-1.392V288C412.632,288,417.008,287.056,421.152,285.6z M344,288v6.032    c-1.112,0.44-2.216,0.896-3.328,1.392L333.248,288H344z M316.92,288l-6.896,6.896L305.328,288H316.92z M272,384H100    c-6.616,0-12-5.384-12-12c0-6.616,5.384-12,12-12h12h6.944H272V384z M132.356,343.992L162.576,288h123.392l12.544,18.408    l-13.016,13.016c-3.128,3.128-3.128,8.184,0,11.312l9.928,9.928c-0.496,1.112-0.952,2.216-1.392,3.328H280H132.356z M464,392    h-11.672c-3.496,0-6.576,2.264-7.632,5.592c-1.216,3.864-2.856,7.8-4.88,11.672c-1.616,3.104-1.032,6.888,1.44,9.36l8.288,8.288    l-22.624,22.624l-8.288-8.288c-2.48-2.472-6.256-3.048-9.36-1.44c-3.872,2.024-7.808,3.664-11.672,4.88    c-3.336,1.064-5.6,4.144-5.6,7.64V464h-32v-11.672c0-3.496-2.264-6.576-5.592-7.632c-3.864-1.216-7.8-2.856-11.672-4.88    c-3.104-1.608-6.888-1.032-9.36,1.44l-8.288,8.288l-22.624-22.624l8.288-8.288c2.472-2.472,3.056-6.256,1.44-9.36    c-2.024-3.872-3.664-7.808-4.88-11.672c-1.064-3.336-4.144-5.6-7.64-5.6H288v-32h11.672c3.496,0,6.576-2.264,7.632-5.592    c1.216-3.864,2.856-7.8,4.88-11.672c1.616-3.104,1.032-6.888-1.44-9.36l-8.288-8.288l22.624-22.624l8.288,8.288    c2.472,2.48,6.256,3.056,9.36,1.44c3.872-2.024,7.808-3.664,11.672-4.88c3.336-1.064,5.6-4.144,5.6-7.64V288h32v11.672    c0,3.496,2.264,6.576,5.592,7.632c3.864,1.216,7.8,2.856,11.672,4.88c3.104,1.616,6.88,1.04,9.36-1.44l8.288-8.288l22.624,22.624    l-8.288,8.288c-2.472,2.472-3.056,6.256-1.44,9.36c2.024,3.872,3.664,7.808,4.88,11.672c1.064,3.336,4.144,5.6,7.64,5.6H464V392z"/><path d="M376,328c-26.472,0-48,21.528-48,48s21.528,48,48,48s48-21.528,48-48S402.472,328,376,328z M376,408    c-17.648,0-32-14.352-32-32s14.352-32,32-32s32,14.352,32,32S393.648,408,376,408z"/><path d="M157.656,61.656l-11.312-11.312l-56,56c-3.128,3.128-3.128,8.184,0,11.312l56,56l11.312-11.312L107.312,112    L157.656,61.656z"/><path d="M333.656,106.344l-56-56l-11.312,11.312L316.688,112l-50.344,50.344l11.312,11.312l56-56    C336.784,114.528,336.784,109.472,333.656,106.344z"/><rect x="131px" y="96px" width="160px" height="16px" transform="matrix(0.4472000002861023 -0.8944000005722046 0.8944000005722046 0.4472000002861023 24.145700454711914 247.10679626464844)"/><rect x="312px" y="160px" width="16px" height="16px"/><rect x="344px" y="160px" width="16px" height="16px"/><rect x="376px" y="160px" width="16px" height="16px"/></g><g transform="matrix(0.12644127011299133 0 0 0.12644127011299133 100.7594985961914 20.753175735473633)" id="L1_79"><path d="M412.81,216.8l-20.24-39.2v-67.76c0-4.418-3.582-8-8-8H278.49L277.93,88c0-4.418-3.582-8-8-8h-42.64V8    c0-4.418-3.582-8-8-8H109.37c-4.418,0-8,3.582-8,8v155.2H9.29c-4.417,0.088-7.927,3.74-7.84,8.157    c0.033,1.677,0.593,3.301,1.6,4.643l39.52,49.76l3.52,31.12c0.214,1.975,1.155,3.8,2.64,5.12l37.92,33.36    c3.321,2.914,8.376,2.583,11.29-0.738c0.26-0.296,0.497-0.611,0.71-0.942l16-24l30.72,1.2l66.24,75.52v34.16    c-0.008,3.125,1.804,5.968,4.64,7.28l57.6,26.56c4.01,1.856,8.765,0.11,10.62-3.9c0.49-1.059,0.743-2.213,0.74-3.38v-66.4    l21.84-28.32l24-1.28c2.117-0.114,4.102-1.063,5.52-2.64l75.04-82.64C413.856,223.372,414.334,219.769,412.81,216.8z     M211.29,322.08l-56.48-64c-1.442-1.645-3.494-2.628-5.68-2.72l-38.64-1.52c-2.72,0.005-5.251,1.391-6.72,3.68l-13.12,20.24    l-28.64-25.2l-3.44-30.32c-0.167-1.491-0.749-2.904-1.68-4.08L25.85,179.2h83.52c4.418,0,8-3.582,8-8V17.04h93.92V322.08z     M227.29,96.64h34.96l0.56,13.6c0,4.418,3.582,8,8,8h105.76V172H227.29V96.64z M327.05,295.36l-24.8,1.36    c-2.334,0.125-4.497,1.265-5.92,3.12l-25.76,33.36c-1.084,1.396-1.674,3.112-1.68,4.88v56.48l-41.6-19.2V187.6h152l16.4,32    L327.05,295.36z"/><path d="M198.144,170.048c-1.232-1.28-2.856-2.113-4.614-2.368l-15.12-2.16l-6.72-13.68c-1.971-3.954-6.774-5.562-10.729-3.591    c-1.555,0.775-2.816,2.036-3.591,3.591l-6.72,13.68l-15.12,1.84c-4.372,0.634-7.403,4.693-6.768,9.066    c0.255,1.758,1.088,3.382,2.368,4.614l10.88,10.96l-2.56,15.04c-0.724,4.359,2.222,8.479,6.58,9.203    c1.716,0.285,3.478,0.003,5.02-0.803l13.52-7.44l13.52,7.12c3.915,2.048,8.749,0.534,10.797-3.38    c0.806-1.541,1.088-3.304,0.803-5.02L187.05,192l10.88-10.64C201.112,178.295,201.208,173.231,198.144,170.048z M172.809,183.44    c-1.905,1.843-2.774,4.509-2.32,7.12l0.56,3.2l-2.8-1.76c-2.329-1.223-5.111-1.223-7.44,0l-2.88,1.52l0.56-3.2    c0.454-2.611-0.415-5.277-2.32-7.12l-2.32-2.24l3.2-0.24c2.602-0.391,4.845-2.036,6-4.4l1.44-2.88l1.44,2.88    c1.155,2.364,3.398,4.009,6,4.4l3.2,0.48L172.809,183.44z"/></g><path d="M50.976,26.194C50.447,17.194,43.028,10,34.085,10c-5.43,0-10.688,2.663-13.946,7.008c-0.075-0.039-0.154-0.066-0.23-0.102  c-0.198-0.096-0.399-0.187-0.604-0.269c-0.114-0.045-0.228-0.086-0.343-0.126c-0.203-0.071-0.409-0.134-0.619-0.191  c-0.115-0.031-0.229-0.063-0.345-0.089c-0.225-0.051-0.455-0.09-0.687-0.125c-0.101-0.015-0.2-0.035-0.302-0.046  C16.677,16.023,16.341,16,16,16c-4.963,0-9,4.037-9,9c0,0.127,0.008,0.252,0.016,0.377v0.004C2.857,27.649,0,32.399,0,37.154  C0,44.237,5.762,50,12.845,50h24.508c0.104,0,0.207-0.006,0.311-0.014l0.062-0.008l0.134,0.008C37.962,49.994,38.064,50,38.169,50  h9.803C54.604,50,60,44.604,60,37.972C60,32.483,56.173,27.56,50.976,26.194z M47.972,48h-9.803c-0.059,0-0.116-0.005-0.174-0.009  l-0.271-0.011l-0.198,0.011C37.469,47.995,37.411,48,37.353,48H12.845C6.865,48,2,43.135,2,37.154C2,33,4.705,28.688,8.433,26.901  L9,26.63V26c0-0.127,0.008-0.256,0.015-0.386l0.009-0.16l-0.012-0.21C9.006,25.163,9,25.082,9,25c0-3.859,3.141-7,7-7  c0.309,0,0.614,0.027,0.917,0.067c0.078,0.01,0.156,0.023,0.233,0.036c0.267,0.044,0.53,0.102,0.789,0.177  c0.035,0.01,0.071,0.017,0.106,0.027c0.285,0.087,0.563,0.197,0.835,0.321c0.071,0.032,0.14,0.067,0.21,0.101  c0.24,0.119,0.475,0.249,0.702,0.396C21.719,20.373,23,22.538,23,25c0,0.553,0.447,1,1,1s1-0.447,1-1c0-2.754-1.246-5.219-3.2-6.871  C24.667,14.379,29.388,12,34.085,12c7.745,0,14.177,6.135,14.848,13.888c-1.022-0.072-2.552-0.109-4.083,0.124  c-0.546,0.083-0.921,0.593-0.838,1.139c0.075,0.495,0.501,0.85,0.987,0.85c0.05,0,0.101-0.004,0.151-0.012  c2.227-0.337,4.548-0.021,4.684-0.002C54.49,28.872,58,33.161,58,37.972C58,43.501,53.501,48,47.972,48z" transform="matrix(1.1648703813552856 0 0 1.1648703813552856 39.05388259887695 124.05388641357422)" id="L1_80"/><path d="M504.5,90H296V67.5c0-20.678-16.822-37.5-37.5-37.5H45v-7.5C45,10.093,34.907,0,22.5,0S0,10.093,0,22.5v467    C0,501.907,10.093,512,22.5,512S45,501.907,45,489.5v-62c0-4.142-3.358-7.5-7.5-7.5c-4.142,0-7.5,3.358-7.5,7.5v62    c0,4.136-3.364,7.5-7.5,7.5s-7.5-3.364-7.5-7.5V405h206v22.5c0,20.678,16.822,37.5,37.5,37.5h246c4.142,0,7.5-3.358,7.5-7.5v-360    C512,93.358,508.642,90,504.5,90z M15,22.5c0-4.136,3.364-7.5,7.5-7.5s7.5,3.364,7.5,7.5V30H15V22.5z M258.5,450    c-12.407,0-22.5-10.093-22.5-22.5V405h22.5c12.407,0,22.5,10.093,22.5,22.5C281,439.907,270.907,450,258.5,450z M281,397.521    c-6.272-4.719-14.064-7.521-22.5-7.521H15v-45h243.5c12.407,0,22.5,10.093,22.5,22.5V397.521z M281,337.521    c-6.272-4.719-14.064-7.521-22.5-7.521H15v-45h243.5c12.407,0,22.5,10.093,22.5,22.5V337.521z M281,217.521    c-6.272-4.719-14.064-7.521-22.5-7.521c-4.142,0-7.5,3.358-7.5,7.5c0,4.142,3.358,7.5,7.5,7.5c12.407,0,22.5,10.093,22.5,22.5    v30.021c-6.272-4.719-14.064-7.521-22.5-7.521H15v-45h213.5c4.142,0,7.5-3.358,7.5-7.5c0-4.142-3.358-7.5-7.5-7.5H15v-45h243.5    c12.407,0,22.5,10.093,22.5,22.5V217.521z M281,157.521c-6.272-4.719-14.064-7.521-22.5-7.521H15v-45h243.5    c12.407,0,22.5,10.093,22.5,22.5V157.521z M281,97.521C274.728,92.801,266.936,90,258.5,90H15V45h243.5    c12.407,0,22.5,10.093,22.5,22.5V97.521z M497,390H318.5c-4.142,0-7.5,3.358-7.5,7.5c0,4.142,3.358,7.5,7.5,7.5H497v45H288.48    c4.719-6.272,7.52-14.064,7.52-22.5V345h201V390z M497,330H296v-45h201V330z M497,270H296v-45h201V270z M497,210H296v-45h201V210z     M497,150H296v-45h201V150z" transform="matrix(0.0883883461356163 -0.027621358633041382 0.027621358633041382 0.0883883461356163 227.301513671875 325.44366455078125)" id="L1_82"/></defs><g fi:class="KUsePattern"><pattern id="pattern_L1_76" width="350" height="350" patternUnits="userSpaceOnUse"><use xlink:href="#L1_76" x="-350" y="-350"/><use xlink:href="#L1_76" x="0" y="-350"/><use xlink:href="#L1_76" x="350" y="-350"/><use xlink:href="#L1_76" x="-350" y="0"/><use xlink:href="#L1_76" x="0" y="0"/><use xlink:href="#L1_76" x="350" y="0"/><use xlink:href="#L1_76" x="-350" y="350"/><use xlink:href="#L1_76" x="0" y="350"/><use xlink:href="#L1_76" x="350" y="350"/></pattern><rect x="0" y="0" width="100%" height="100%" fill="url(#pattern_L1_76)"/></g><g fi:class="KUsePattern" opacity="1"><pattern id="pattern_L1_77" width="350" height="350" patternUnits="userSpaceOnUse"><use xlink:href="#L1_77" x="-350" y="-350"/><use xlink:href="#L1_77" x="0" y="-350"/><use xlink:href="#L1_77" x="350" y="-350"/><use xlink:href="#L1_77" x="-350" y="0"/><use xlink:href="#L1_77" x="0" y="0"/><use xlink:href="#L1_77" x="350" y="0"/><use xlink:href="#L1_77" x="-350" y="350"/><use xlink:href="#L1_77" x="0" y="350"/><use xlink:href="#L1_77" x="350" y="350"/></pattern><rect x="0" y="0" width="100%" height="100%" fill="url(#pattern_L1_77)"/></g><g fi:class="KUsePattern"><pattern id="pattern_L1_78" width="350" height="350" patternUnits="userSpaceOnUse"><use xlink:href="#L1_78" x="-350" y="-350"/><use xlink:href="#L1_78" x="0" y="-350"/><use xlink:href="#L1_78" x="350" y="-350"/><use xlink:href="#L1_78" x="-350" y="0"/><use xlink:href="#L1_78" x="0" y="0"/><use xlink:href="#L1_78" x="350" y="0"/><use xlink:href="#L1_78" x="-350" y="350"/><use xlink:href="#L1_78" x="0" y="350"/><use xlink:href="#L1_78" x="350" y="350"/></pattern><rect x="0" y="0" width="100%" height="100%" fill="url(#pattern_L1_78)"/></g><g fi:class="KUsePattern"><pattern id="pattern_L1_79" width="350" height="350" patternUnits="userSpaceOnUse"><use xlink:href="#L1_79" x="-350" y="-350"/><use xlink:href="#L1_79" x="0" y="-350"/><use xlink:href="#L1_79" x="350" y="-350"/><use xlink:href="#L1_79" x="-350" y="0"/><use xlink:href="#L1_79" x="0" y="0"/><use xlink:href="#L1_79" x="350" y="0"/><use xlink:href="#L1_79" x="-350" y="350"/><use xlink:href="#L1_79" x="0" y="350"/><use xlink:href="#L1_79" x="350" y="350"/></pattern><rect x="0" y="0" width="100%" height="100%" fill="url(#pattern_L1_79)"/></g><g fi:class="KUsePattern"><pattern id="pattern_L1_80" width="350" height="350" patternUnits="userSpaceOnUse"><use xlink:href="#L1_80" x="-350" y="-350"/><use xlink:href="#L1_80" x="0" y="-350"/><use xlink:href="#L1_80" x="350" y="-350"/><use xlink:href="#L1_80" x="-350" y="0"/><use xlink:href="#L1_80" x="0" y="0"/><use xlink:href="#L1_80" x="350" y="0"/><use xlink:href="#L1_80" x="-350" y="350"/><use xlink:href="#L1_80" x="0" y="350"/><use xlink:href="#L1_80" x="350" y="350"/></pattern><rect x="0" y="0" width="100%" height="100%" fill="url(#pattern_L1_80)"/></g><g fi:class="KUsePattern"><pattern id="pattern_L1_82" width="350" height="350" patternUnits="userSpaceOnUse"><use xlink:href="#L1_82" x="-350" y="-350"/><use xlink:href="#L1_82" x="0" y="-350"/><use xlink:href="#L1_82" x="350" y="-350"/><use xlink:href="#L1_82" x="-350" y="0"/><use xlink:href="#L1_82" x="0" y="0"/><use xlink:href="#L1_82" x="350" y="0"/><use xlink:href="#L1_82" x="-350" y="350"/><use xlink:href="#L1_82" x="0" y="350"/><use xlink:href="#L1_82" x="350" y="350"/></pattern><rect x="0" y="0" width="100%" height="100%" fill="url(#pattern_L1_82)"/></g></svg>